<?xml version="1.0" standalone="no"?>
<!DOCTYPE svg PUBLIC "-//W3C//DTD SVG 20010904//EN"
 "http://www.w3.org/TR/2001/REC-SVG-20010904/DTD/svg10.dtd">
<svg version="1.0" xmlns="http://www.w3.org/2000/svg"
 width="1024.000000pt" height="1024.000000pt" viewBox="0 0 1024.000000 1024.000000"
 preserveAspectRatio="xMidYMid meet">
<metadata>
Created by potrace 1.11, written by Peter Selinger 2001-2013
</metadata>
<g transform="translate(0.000000,1024.000000) scale(0.100000,-0.100000)"
fill="#000000" stroke="none">
<path d="M5097 8004 c-3 -3 -56 -7 -118 -10 -63 -2 -127 -6 -144 -8 -16 -3
-61 -8 -100 -11 -38 -4 -74 -9 -78 -12 -4 -2 -24 -7 -45 -9 -63 -9 -76 -11
-92 -17 -8 -3 -26 -8 -40 -10 -66 -13 -198 -51 -277 -78 -32 -11 -66 -22 -75
-24 -10 -2 -32 -10 -50 -19 -18 -8 -62 -27 -98 -41 -83 -34 -263 -126 -271
-138 -3 -5 -8 -8 -10 -7 -11 6 -241 -143 -311 -201 -26 -22 -49 -39 -52 -39
-3 0 -14 -8 -24 -17 -10 -10 -43 -38 -72 -63 -194 -162 -416 -422 -569 -665
-55 -88 -209 -386 -215 -418 -3 -12 -7 -24 -33 -87 -16 -38 -49 -137 -63 -185
-25 -88 -40 -146 -44 -167 -2 -12 -9 -41 -14 -63 -6 -22 -13 -58 -16 -80 -2
-22 -5 -40 -6 -40 -2 0 -5 -21 -15 -100 -4 -33 -10 -89 -15 -125 -7 -63 -5
-474 4 -535 2 -16 7 -55 10 -85 9 -68 15 -110 21 -130 2 -8 7 -33 10 -55 3
-22 10 -58 15 -80 6 -22 12 -48 15 -58 2 -10 14 -52 25 -95 12 -42 23 -81 24
-87 1 -5 10 -27 19 -49 9 -21 17 -43 17 -48 0 -41 169 -395 251 -526 33 -51
59 -97 59 -102 0 -4 3 -10 8 -12 4 -1 25 -28 47 -58 123 -174 306 -374 464
-510 29 -25 59 -50 66 -57 7 -7 15 -9 19 -6 3 4 6 1 6 -5 0 -24 271 -205 445
-297 85 -45 140 -71 290 -135 23 -9 58 -23 65 -25 3 0 37 -12 75 -25 39 -13
72 -25 75 -25 3 -1 30 -8 60 -17 30 -10 66 -19 80 -22 14 -3 43 -10 65 -15 22
-6 54 -12 70 -15 17 -3 40 -8 52 -10 11 -3 43 -7 70 -11 26 -4 59 -9 73 -11
33 -5 155 -16 205 -18 22 -1 46 -5 53 -10 6 -4 12 -4 12 1 0 4 64 8 143 9 136
0 302 10 329 18 7 3 36 7 63 10 28 3 61 8 75 11 105 21 148 30 240 55 58 16
150 45 205 65 55 20 105 38 110 39 6 2 21 8 35 13 14 6 28 11 32 13 14 3 284
142 323 165 22 14 46 28 53 31 32 16 247 167 262 183 3 3 28 24 55 46 142 114
318 293 444 455 56 71 101 132 101 135 0 3 5 11 11 18 5 7 32 46 58 87 107
168 228 421 285 600 15 47 30 92 33 100 8 21 12 32 17 55 2 11 5 20 6 20 1 0
3 7 5 15 2 8 11 49 20 90 33 150 51 262 62 370 15 156 7 595 -11 652 -3 7 -7
36 -11 63 -5 43 -33 188 -48 250 -32 131 -89 306 -127 390 -9 22 -21 50 -24
62 -19 62 -180 365 -197 371 -5 2 -9 8 -9 14 0 17 -150 232 -205 294 -5 6 -30
35 -55 64 -64 76 -224 236 -300 300 -36 30 -70 60 -77 65 -105 91 -299 217
-473 308 -41 22 -79 43 -85 48 -5 5 -15 9 -22 9 -6 0 -43 14 -80 31 -37 17
-77 35 -88 40 -62 27 -303 103 -355 113 -14 2 -52 11 -85 19 -59 15 -74 18
-210 38 -100 14 -156 19 -275 24 -58 2 -115 6 -127 9 -11 2 -23 2 -26 0z m243
-1298 c14 -3 41 -8 60 -11 55 -7 189 -43 265 -72 118 -44 316 -145 323 -164 2
-5 10 -9 18 -9 8 0 14 -4 14 -10 0 -5 5 -10 11 -10 25 0 211 -165 299 -265 52
-59 140 -181 140 -194 0 -6 4 -11 8 -11 14 0 121 -224 156 -326 31 -90 39
-121 51 -189 2 -11 4 -20 5 -20 20 0 33 -390 17 -505 -4 -30 -9 -67 -11 -82
-2 -14 -7 -35 -11 -47 -3 -11 -9 -33 -12 -48 -8 -42 -8 -43 -30 -113 -12 -36
-30 -86 -42 -113 -11 -26 -21 -51 -21 -55 -2 -9 -56 -109 -99 -181 -51 -86
-142 -200 -230 -289 -83 -82 -230 -202 -250 -202 -6 0 -11 -4 -11 -9 0 -5 -8
-12 -19 -16 -10 -3 -29 -14 -41 -25 -13 -11 -31 -20 -42 -20 -10 0 -18 -4 -18
-9 0 -10 -182 -89 -279 -120 -72 -23 -186 -48 -269 -59 -66 -8 -359 -7 -417 1
-37 6 -50 8 -110 22 -11 2 -33 7 -50 10 -102 19 -308 102 -430 173 -87 51
-225 152 -225 164 0 4 -4 8 -10 8 -30 0 -290 295 -290 330 0 5 -4 10 -8 10 -5
0 -18 19 -31 43 -12 23 -31 58 -43 77 -34 58 -95 203 -113 270 -2 8 -11 40
-20 70 -17 58 -31 132 -43 215 -14 104 -5 385 16 485 42 199 67 273 148 434
37 74 118 205 154 250 87 107 211 230 305 301 98 75 255 165 350 200 28 10 55
21 60 25 9 6 83 30 110 36 6 1 39 10 75 19 36 10 79 19 95 21 65 8 120 16 123
19 6 5 346 -3 372 -9z"/>
</g>
</svg>
